<svg width="189" height="36" viewBox="0 0 189 36" fill="none" xmlns="http://www.w3.org/2000/svg">
<path d="M189 35.679H183.117V19.4557C183.117 18.6864 182.921 18.1057 182.529 17.7135C182.137 17.3062 181.549 17.1026 180.764 17.1026H170.152V11.2196H180.764C181.322 11.2196 181.911 11.2875 182.529 11.4233C183.147 11.544 183.758 11.7401 184.362 12.0116C184.98 12.2831 185.569 12.6376 186.127 13.075C186.685 13.4974 187.175 14.0178 187.597 14.6363C188.02 15.2396 188.359 15.9411 188.616 16.7405C188.872 17.54 189 18.4451 189 19.4557V35.679ZM167.776 35.679H161.894V0.879272H167.776V35.679Z" fill="white"/>
<path d="M156.938 35.679H140.986C140.172 35.679 139.282 35.5357 138.316 35.2491C137.351 34.9625 136.453 34.4949 135.624 33.8462C134.809 33.1825 134.123 32.3302 133.565 31.2894C133.022 30.2335 132.75 28.9438 132.75 27.4203V19.4557C132.75 18.8976 132.81 18.3093 132.931 17.6908C133.067 17.0724 133.27 16.4614 133.542 15.8581C133.813 15.2396 134.16 14.6513 134.583 14.0932C135.02 13.5351 135.541 13.0448 136.144 12.6225C136.762 12.2001 137.471 11.8607 138.271 11.6043C139.07 11.3478 139.975 11.2196 140.986 11.2196H156.938V17.1025H140.986C140.217 17.1025 139.628 17.2986 139.221 17.6908C138.829 18.083 138.633 18.6864 138.633 19.5009V27.4203C138.633 28.1896 138.837 28.7779 139.244 29.1851C139.651 29.5924 140.247 29.7961 141.031 29.7961H156.938V35.679Z" fill="white"/>
<path d="M129.289 19.3199C129.289 20.1345 129.146 21.0169 128.859 21.9672C128.573 22.9025 128.105 23.7774 127.456 24.5919C126.823 25.3914 125.986 26.0627 124.945 26.6057C123.919 27.1487 122.667 27.4203 121.189 27.4203H110.577V21.8315H121.189C121.988 21.8315 122.607 21.5901 123.044 21.1074C123.482 20.6097 123.7 19.9987 123.7 19.2747C123.7 18.5054 123.451 17.902 122.954 17.4646C122.471 17.0271 121.883 16.8084 121.189 16.8084H110.577C109.777 16.8084 109.159 17.0573 108.722 17.5551C108.284 18.0378 108.065 18.6411 108.065 19.3652V27.5787C108.065 28.363 108.307 28.974 108.789 29.4114C109.287 29.8489 109.898 30.0676 110.622 30.0676H121.189V35.679H110.577C109.762 35.679 108.88 35.5357 107.93 35.2491C106.994 34.9625 106.119 34.5024 105.305 33.8689C104.505 33.2202 103.834 32.383 103.291 31.3573C102.748 30.3165 102.477 29.0569 102.477 27.5787V19.3199C102.477 18.5054 102.62 17.6305 102.906 16.6952C103.193 15.7449 103.653 14.87 104.287 14.0706C104.935 13.256 105.773 12.5772 106.798 12.0342C107.839 11.4911 109.099 11.2196 110.577 11.2196H121.189C122.003 11.2196 122.878 11.3629 123.813 11.6495C124.764 11.9361 125.639 12.4037 126.438 13.0524C127.253 13.6859 127.932 14.5231 128.475 15.5639C129.018 16.5897 129.289 17.8417 129.289 19.3199Z" fill="white"/>
<path d="M101.865 9.11534H88.8999V35.679H83.017V9.11534H70.0293V3.23242H101.865V9.11534Z" fill="white"/>
<path d="M65.1653 22.4198H46.5662V16.4916H65.1653V22.4198ZM67.7899 9.11534H44.213V35.679H38.3301V6.19651C38.3301 5.78923 38.4055 5.40458 38.5563 5.04255C38.7072 4.68053 38.9108 4.36375 39.1673 4.09223C39.4388 3.82071 39.7556 3.60953 40.1176 3.45869C40.4796 3.30784 40.8718 3.23242 41.2942 3.23242H67.7899V9.11534Z" fill="#1C98AE"/>
<path d="M32.424 14.1385C32.424 15.481 32.258 16.6802 31.9262 17.7361C31.5943 18.792 31.1418 19.7272 30.5686 20.5418C30.0104 21.3413 29.3618 22.0276 28.6227 22.6008C27.8835 23.174 27.1067 23.6492 26.2921 24.0263C25.4927 24.3883 24.6781 24.6523 23.8485 24.8182C23.0339 24.9841 22.2646 25.0671 21.5405 25.0671L33.8268 35.679H24.7309L12.4673 25.0671H8.23609V19.1842H21.5405C22.2797 19.1239 22.9509 18.973 23.5543 18.7317C24.1728 18.4752 24.7007 18.1358 25.1382 17.7135C25.5907 17.2911 25.9377 16.7858 26.179 16.1975C26.4204 15.5941 26.541 14.9078 26.541 14.1385V10.4277C26.541 10.0958 26.4958 9.84694 26.4053 9.68101C26.3298 9.5 26.2243 9.37178 26.0885 9.29636C25.9678 9.20585 25.8321 9.15305 25.6812 9.13797C25.5455 9.12289 25.4172 9.11534 25.2966 9.11534H5.88292V35.679H0V6.19651C0 5.78923 0.0754221 5.40458 0.226266 5.04255C0.37711 4.68053 0.58075 4.36375 0.837185 4.09223C1.1087 3.82071 1.42548 3.60953 1.7875 3.45869C2.14953 3.30784 2.54172 3.23242 2.96409 3.23242H25.2966C26.6089 3.23242 27.7176 3.47377 28.6227 3.95647C29.5277 4.42409 30.2593 5.01992 30.8175 5.74398C31.3907 6.45294 31.7979 7.22225 32.0393 8.05189C32.2957 8.88154 32.424 9.65838 32.424 10.3824V14.1385Z" fill="#1C98AE"/>
</svg>
