<svg width="57" height="58" viewBox="0 0 57 58" fill="none" xmlns="http://www.w3.org/2000/svg">
<g clip-path="url(#clip0_224_246)">
<path d="M27.8438 25.2656C27.8438 26.3086 27.7148 27.2402 27.457 28.0605C27.1992 28.8809 26.8477 29.6074 26.4023 30.2402C25.9688 30.8613 25.4648 31.3945 24.8906 31.8398C24.3164 32.2852 23.7129 32.6543 23.0801 32.9473C22.459 33.2285 21.8262 33.4336 21.1816 33.5625C20.5488 33.6914 19.9512 33.7559 19.3887 33.7559L28.9336 42H21.8672L12.3398 33.7559H9.05273V29.1855H19.3887C19.9629 29.1387 20.4844 29.0215 20.9531 28.834C21.4336 28.6348 21.8438 28.3711 22.1836 28.043C22.5352 27.7148 22.8047 27.3223 22.9922 26.8652C23.1797 26.3965 23.2734 25.8633 23.2734 25.2656V22.3828C23.2734 22.125 23.2383 21.9316 23.168 21.8027C23.1094 21.6621 23.0273 21.5625 22.9219 21.5039C22.8281 21.4336 22.7227 21.3926 22.6055 21.3809C22.5 21.3691 22.4004 21.3633 22.3066 21.3633H7.22461V42H2.6543V19.0957C2.6543 18.7793 2.71289 18.4805 2.83008 18.1992C2.94727 17.918 3.10547 17.6719 3.30469 17.4609C3.51562 17.25 3.76172 17.0859 4.04297 16.9688C4.32422 16.8516 4.62891 16.793 4.95703 16.793H22.3066C23.3262 16.793 24.1875 16.9805 24.8906 17.3555C25.5938 17.7188 26.1621 18.1816 26.5957 18.7441C27.041 19.2949 27.3574 19.8926 27.5449 20.5371C27.7441 21.1816 27.8438 21.7852 27.8438 22.3477V25.2656ZM53.2793 31.6992H38.8301V27.0938H53.2793V31.6992ZM55.3184 21.3633H37.002V42H32.4316V19.0957C32.4316 18.7793 32.4902 18.4805 32.6074 18.1992C32.7246 17.918 32.8828 17.6719 33.082 17.4609C33.293 17.25 33.5391 17.0859 33.8203 16.9688C34.1016 16.8516 34.4062 16.793 34.7344 16.793H55.3184V21.3633Z" fill="#1C98AE"/>
<path d="M81.791 21.3633H71.7188V42H67.1484V21.3633H57.0586V16.793H81.791V21.3633ZM103.096 29.291C103.096 29.9238 102.984 30.6094 102.762 31.3477C102.539 32.0742 102.176 32.7539 101.672 33.3867C101.18 34.0078 100.529 34.5293 99.7207 34.9512C98.9238 35.373 97.9512 35.584 96.8027 35.584H88.5586V31.2422H96.8027C97.4238 31.2422 97.9043 31.0547 98.2441 30.6797C98.584 30.293 98.7539 29.8184 98.7539 29.2559C98.7539 28.6582 98.5605 28.1895 98.1738 27.8496C97.7988 27.5098 97.3418 27.3398 96.8027 27.3398H88.5586C87.9375 27.3398 87.457 27.5332 87.1172 27.9199C86.7773 28.2949 86.6074 28.7637 86.6074 29.3262V35.707C86.6074 36.3164 86.7949 36.791 87.1699 37.1309C87.5566 37.4707 88.0312 37.6406 88.5938 37.6406H96.8027V42H88.5586C87.9258 42 87.2402 41.8887 86.502 41.666C85.7754 41.4434 85.0957 41.0859 84.4629 40.5938C83.8418 40.0898 83.3203 39.4395 82.8984 38.6426C82.4766 37.834 82.2656 36.8555 82.2656 35.707V29.291C82.2656 28.6582 82.377 27.9785 82.5996 27.252C82.8223 26.5137 83.1797 25.834 83.6719 25.2129C84.1758 24.5801 84.8262 24.0527 85.623 23.6309C86.4316 23.209 87.4102 22.998 88.5586 22.998H96.8027C97.4355 22.998 98.1152 23.1094 98.8418 23.332C99.5801 23.5547 100.26 23.918 100.881 24.4219C101.514 24.9141 102.041 25.5645 102.463 26.373C102.885 27.1699 103.096 28.1426 103.096 29.291ZM124.576 42H112.184C111.551 42 110.859 41.8887 110.109 41.666C109.359 41.4434 108.662 41.0801 108.018 40.5762C107.385 40.0605 106.852 39.3984 106.418 38.5898C105.996 37.7695 105.785 36.7676 105.785 35.584V29.3965C105.785 28.9629 105.832 28.5059 105.926 28.0254C106.031 27.5449 106.189 27.0703 106.4 26.6016C106.611 26.1211 106.881 25.6641 107.209 25.2305C107.549 24.7969 107.953 24.416 108.422 24.0879C108.902 23.7598 109.453 23.4961 110.074 23.2969C110.695 23.0977 111.398 22.998 112.184 22.998H124.576V27.5684H112.184C111.586 27.5684 111.129 27.7207 110.812 28.0254C110.508 28.3301 110.355 28.7988 110.355 29.4316V35.584C110.355 36.1816 110.514 36.6387 110.83 36.9551C111.146 37.2715 111.609 37.4297 112.219 37.4297H124.576V42ZM149.484 42H144.914V29.3965C144.914 28.7988 144.762 28.3477 144.457 28.043C144.152 27.7266 143.695 27.5684 143.086 27.5684H134.842V22.998H143.086C143.52 22.998 143.977 23.0508 144.457 23.1562C144.938 23.25 145.412 23.4023 145.881 23.6133C146.361 23.8242 146.818 24.0996 147.252 24.4395C147.686 24.7676 148.066 25.1719 148.395 25.6523C148.723 26.1211 148.986 26.666 149.186 27.2871C149.385 27.9082 149.484 28.6113 149.484 29.3965V42ZM132.996 42H128.426V14.9648H132.996V42Z" fill="black"/>
</g>
<defs>
<clipPath id="clip0_224_246">
<rect width="57" height="58" fill="white"/>
</clipPath>
</defs>
</svg>
