<svg width="172" height="58" viewBox="0 0 172 58" fill="none" xmlns="http://www.w3.org/2000/svg">
<path d="M37.8438 25.2656C37.8438 26.3086 37.7148 27.2402 37.457 28.0605C37.1992 28.8809 36.8477 29.6074 36.4023 30.2402C35.9688 30.8613 35.4648 31.3945 34.8906 31.8398C34.3164 32.2852 33.7129 32.6543 33.0801 32.9473C32.459 33.2285 31.8262 33.4336 31.1816 33.5625C30.5488 33.6914 29.9512 33.7559 29.3887 33.7559L38.9336 42H31.8672L22.3398 33.7559H19.0527V29.1855H29.3887C29.9629 29.1387 30.4844 29.0215 30.9531 28.834C31.4336 28.6348 31.8438 28.3711 32.1836 28.043C32.5352 27.7148 32.8047 27.3223 32.9922 26.8652C33.1797 26.3965 33.2734 25.8633 33.2734 25.2656V22.3828C33.2734 22.125 33.2383 21.9316 33.168 21.8027C33.1094 21.6621 33.0273 21.5625 32.9219 21.5039C32.8281 21.4336 32.7227 21.3926 32.6055 21.3809C32.5 21.3691 32.4004 21.3633 32.3066 21.3633H17.2246V42H12.6543V19.0957C12.6543 18.7793 12.7129 18.4805 12.8301 18.1992C12.9473 17.918 13.1055 17.6719 13.3047 17.4609C13.5156 17.25 13.7617 17.0859 14.043 16.9688C14.3242 16.8516 14.6289 16.793 14.957 16.793H32.3066C33.3262 16.793 34.1875 16.9805 34.8906 17.3555C35.5938 17.7188 36.1621 18.1816 36.5957 18.7441C37.041 19.2949 37.3574 19.8926 37.5449 20.5371C37.7441 21.1816 37.8438 21.7852 37.8438 22.3477V25.2656ZM63.2793 31.6992H48.8301V27.0938H63.2793V31.6992ZM65.3184 21.3633H47.002V42H42.4316V19.0957C42.4316 18.7793 42.4902 18.4805 42.6074 18.1992C42.7246 17.918 42.8828 17.6719 43.082 17.4609C43.293 17.25 43.5391 17.0859 43.8203 16.9688C44.1016 16.8516 44.4062 16.793 44.7344 16.793H65.3184V21.3633Z" fill="#1C98AE"/>
<path d="M91.791 21.3633H81.7188V42H77.1484V21.3633H67.0586V16.793H91.791V21.3633ZM113.096 29.291C113.096 29.9238 112.984 30.6094 112.762 31.3477C112.539 32.0742 112.176 32.7539 111.672 33.3867C111.18 34.0078 110.529 34.5293 109.721 34.9512C108.924 35.373 107.951 35.584 106.803 35.584H98.5586V31.2422H106.803C107.424 31.2422 107.904 31.0547 108.244 30.6797C108.584 30.293 108.754 29.8184 108.754 29.2559C108.754 28.6582 108.561 28.1895 108.174 27.8496C107.799 27.5098 107.342 27.3398 106.803 27.3398H98.5586C97.9375 27.3398 97.457 27.5332 97.1172 27.9199C96.7773 28.2949 96.6074 28.7637 96.6074 29.3262V35.707C96.6074 36.3164 96.7949 36.791 97.1699 37.1309C97.5566 37.4707 98.0312 37.6406 98.5938 37.6406H106.803V42H98.5586C97.9258 42 97.2402 41.8887 96.502 41.666C95.7754 41.4434 95.0957 41.0859 94.4629 40.5938C93.8418 40.0898 93.3203 39.4395 92.8984 38.6426C92.4766 37.834 92.2656 36.8555 92.2656 35.707V29.291C92.2656 28.6582 92.377 27.9785 92.5996 27.252C92.8223 26.5137 93.1797 25.834 93.6719 25.2129C94.1758 24.5801 94.8262 24.0527 95.623 23.6309C96.4316 23.209 97.4102 22.998 98.5586 22.998H106.803C107.436 22.998 108.115 23.1094 108.842 23.332C109.58 23.5547 110.26 23.918 110.881 24.4219C111.514 24.9141 112.041 25.5645 112.463 26.373C112.885 27.1699 113.096 28.1426 113.096 29.291ZM134.576 42H122.184C121.551 42 120.859 41.8887 120.109 41.666C119.359 41.4434 118.662 41.0801 118.018 40.5762C117.385 40.0605 116.852 39.3984 116.418 38.5898C115.996 37.7695 115.785 36.7676 115.785 35.584V29.3965C115.785 28.9629 115.832 28.5059 115.926 28.0254C116.031 27.5449 116.189 27.0703 116.4 26.6016C116.611 26.1211 116.881 25.6641 117.209 25.2305C117.549 24.7969 117.953 24.416 118.422 24.0879C118.902 23.7598 119.453 23.4961 120.074 23.2969C120.695 23.0977 121.398 22.998 122.184 22.998H134.576V27.5684H122.184C121.586 27.5684 121.129 27.7207 120.812 28.0254C120.508 28.3301 120.355 28.7988 120.355 29.4316V35.584C120.355 36.1816 120.514 36.6387 120.83 36.9551C121.146 37.2715 121.609 37.4297 122.219 37.4297H134.576V42ZM159.484 42H154.914V29.3965C154.914 28.7988 154.762 28.3477 154.457 28.043C154.152 27.7266 153.695 27.5684 153.086 27.5684H144.842V22.998H153.086C153.52 22.998 153.977 23.0508 154.457 23.1562C154.938 23.25 155.412 23.4023 155.881 23.6133C156.361 23.8242 156.818 24.0996 157.252 24.4395C157.686 24.7676 158.066 25.1719 158.395 25.6523C158.723 26.1211 158.986 26.666 159.186 27.2871C159.385 27.9082 159.484 28.6113 159.484 29.3965V42ZM142.996 42H138.426V14.9648H142.996V42Z" fill="white"/>
</svg>
