<svg width="148" height="28" viewBox="0 0 148 28" fill="none" xmlns="http://www.w3.org/2000/svg">
<path d="M25.8438 11.2656C25.8438 12.3086 25.7148 13.2402 25.457 14.0605C25.1992 14.8809 24.8477 15.6074 24.4023 16.2402C23.9688 16.8613 23.4648 17.3945 22.8906 17.8398C22.3164 18.2852 21.7129 18.6543 21.0801 18.9473C20.459 19.2285 19.8262 19.4336 19.1816 19.5625C18.5488 19.6914 17.9512 19.7559 17.3887 19.7559L26.9336 28H19.8672L10.3398 19.7559H7.05273V15.1855H17.3887C17.9629 15.1387 18.4844 15.0215 18.9531 14.834C19.4336 14.6348 19.8438 14.3711 20.1836 14.043C20.5352 13.7148 20.8047 13.3223 20.9922 12.8652C21.1797 12.3965 21.2734 11.8633 21.2734 11.2656V8.38281C21.2734 8.125 21.2383 7.93164 21.168 7.80273C21.1094 7.66211 21.0273 7.5625 20.9219 7.50391C20.8281 7.43359 20.7227 7.39258 20.6055 7.38086C20.5 7.36914 20.4004 7.36328 20.3066 7.36328H5.22461V28H0.654297V5.0957C0.654297 4.7793 0.712891 4.48047 0.830078 4.19922C0.947266 3.91797 1.10547 3.67188 1.30469 3.46094C1.51562 3.25 1.76172 3.08594 2.04297 2.96875C2.32422 2.85156 2.62891 2.79297 2.95703 2.79297H20.3066C21.3262 2.79297 22.1875 2.98047 22.8906 3.35547C23.5938 3.71875 24.1621 4.18164 24.5957 4.74414C25.041 5.29492 25.3574 5.89258 25.5449 6.53711C25.7441 7.18164 25.8438 7.78516 25.8438 8.34766V11.2656ZM51.2793 17.6992H36.8301V13.0938H51.2793V17.6992ZM53.3184 7.36328H35.002V28H30.4316V5.0957C30.4316 4.7793 30.4902 4.48047 30.6074 4.19922C30.7246 3.91797 30.8828 3.67188 31.082 3.46094C31.293 3.25 31.5391 3.08594 31.8203 2.96875C32.1016 2.85156 32.4062 2.79297 32.7344 2.79297H53.3184V7.36328Z" fill="white"/>
<path d="M79.791 7.36328H69.7188V28H65.1484V7.36328H55.0586V2.79297H79.791V7.36328ZM101.096 15.291C101.096 15.9238 100.984 16.6094 100.762 17.3477C100.539 18.0742 100.176 18.7539 99.6719 19.3867C99.1797 20.0078 98.5293 20.5293 97.7207 20.9512C96.9238 21.373 95.9512 21.584 94.8027 21.584H86.5586V17.2422H94.8027C95.4238 17.2422 95.9043 17.0547 96.2441 16.6797C96.584 16.293 96.7539 15.8184 96.7539 15.2559C96.7539 14.6582 96.5605 14.1895 96.1738 13.8496C95.7988 13.5098 95.3418 13.3398 94.8027 13.3398H86.5586C85.9375 13.3398 85.457 13.5332 85.1172 13.9199C84.7773 14.2949 84.6074 14.7637 84.6074 15.3262V21.707C84.6074 22.3164 84.7949 22.791 85.1699 23.1309C85.5566 23.4707 86.0312 23.6406 86.5938 23.6406H94.8027V28H86.5586C85.9258 28 85.2402 27.8887 84.502 27.666C83.7754 27.4434 83.0957 27.0859 82.4629 26.5938C81.8418 26.0898 81.3203 25.4395 80.8984 24.6426C80.4766 23.834 80.2656 22.8555 80.2656 21.707V15.291C80.2656 14.6582 80.377 13.9785 80.5996 13.252C80.8223 12.5137 81.1797 11.834 81.6719 11.2129C82.1758 10.5801 82.8262 10.0527 83.623 9.63086C84.4316 9.20898 85.4102 8.99805 86.5586 8.99805H94.8027C95.4355 8.99805 96.1152 9.10938 96.8418 9.33203C97.5801 9.55469 98.2598 9.91797 98.8809 10.4219C99.5137 10.9141 100.041 11.5645 100.463 12.373C100.885 13.1699 101.096 14.1426 101.096 15.291ZM122.576 28H110.184C109.551 28 108.859 27.8887 108.109 27.666C107.359 27.4434 106.662 27.0801 106.018 26.5762C105.385 26.0605 104.852 25.3984 104.418 24.5898C103.996 23.7695 103.785 22.7676 103.785 21.584V15.3965C103.785 14.9629 103.832 14.5059 103.926 14.0254C104.031 13.5449 104.189 13.0703 104.4 12.6016C104.611 12.1211 104.881 11.6641 105.209 11.2305C105.549 10.7969 105.953 10.416 106.422 10.0879C106.902 9.75977 107.453 9.49609 108.074 9.29688C108.695 9.09766 109.398 8.99805 110.184 8.99805H122.576V13.5684H110.184C109.586 13.5684 109.129 13.7207 108.812 14.0254C108.508 14.3301 108.355 14.7988 108.355 15.4316V21.584C108.355 22.1816 108.514 22.6387 108.83 22.9551C109.146 23.2715 109.609 23.4297 110.219 23.4297H122.576V28ZM147.484 28H142.914V15.3965C142.914 14.7988 142.762 14.3477 142.457 14.043C142.152 13.7266 141.695 13.5684 141.086 13.5684H132.842V8.99805H141.086C141.52 8.99805 141.977 9.05078 142.457 9.15625C142.938 9.25 143.412 9.40234 143.881 9.61328C144.361 9.82422 144.818 10.0996 145.252 10.4395C145.686 10.7676 146.066 11.1719 146.395 11.6523C146.723 12.1211 146.986 12.666 147.186 13.2871C147.385 13.9082 147.484 14.6113 147.484 15.3965V28ZM130.996 28H126.426V0.964844H130.996V28Z" fill="white"/>
</svg>
